<svg width="131" height="36" viewBox="0 0 131 36" fill="none" xmlns="http://www.w3.org/2000/svg">
<path d="M29.04 12.12L18.7734 7.12842C18.6057 7.04689 18.4108 7.04255 18.2396 7.11651L6.66204 12.12L18.2121 17.7355C18.3985 17.8262 18.6172 17.8209 18.7991 17.7215L29.04 12.12Z" fill="#2B2B2B"/>
<path d="M6.66204 12.12L18.2121 17.7355C18.3985 17.8262 18.6172 17.8209 18.7991 17.7215L29.04 12.12L18.7734 7.12842C18.6057 7.04689 18.4108 7.04255 18.2396 7.11651L6.66204 12.12ZM6.66204 12.12C6.66204 12.12 6.05427 13.6507 6.00386 14.68C5.94152 15.953 6.66204 17.88 6.66204 17.88M29.04 17.88L18.7991 23.4815C18.6172 23.5809 18.3985 23.5862 18.2121 23.4955L6.66204 17.88M6.66204 17.88C6.66204 17.88 6.00386 19.8056 6.00386 21.08C6.00386 22.3544 6.66204 24.28 6.66204 24.28L18.2121 29.8955C18.3985 29.9862 18.6172 29.9809 18.7991 29.8815L29.04 24.28" stroke="#2B2B2B" stroke-width="2.56" stroke-linecap="round" stroke-linejoin="round"/>
<path d="M45.46 16.2H51.7V19.6H45.46V16.2ZM45.78 21.44H52.78V25H41.14V11H52.52V14.56H45.78V21.44ZM61.757 25.2C60.8104 25.2 60.0237 25 59.397 24.6C58.7837 24.1867 58.3304 23.5667 58.037 22.74C57.7437 21.9 57.597 20.8333 57.597 19.54C57.597 18.22 57.7304 17.1467 57.997 16.32C58.277 15.48 58.7237 14.86 59.337 14.46C59.9504 14.06 60.757 13.86 61.757 13.86C62.717 13.86 63.597 14.0933 64.397 14.56C65.197 15.0133 65.837 15.6667 66.317 16.52C66.797 17.36 67.037 18.3667 67.037 19.54C67.037 20.7133 66.797 21.7267 66.317 22.58C65.837 23.42 65.197 24.0667 64.397 24.52C63.597 24.9733 62.717 25.2 61.757 25.2ZM54.457 28.88V14.06H58.757V15.54L58.777 19.54L58.977 23.54V28.88H54.457ZM60.677 21.68C61.0104 21.68 61.3104 21.6 61.577 21.44C61.8437 21.28 62.057 21.04 62.217 20.72C62.377 20.4 62.457 20.0067 62.457 19.54C62.457 19.06 62.377 18.66 62.217 18.34C62.057 18.02 61.8437 17.78 61.577 17.62C61.3104 17.46 61.0104 17.38 60.677 17.38C60.3437 17.38 60.0437 17.46 59.777 17.62C59.5104 17.78 59.297 18.02 59.137 18.34C58.977 18.66 58.897 19.06 58.897 19.54C58.897 20.0067 58.977 20.4 59.137 20.72C59.297 21.04 59.5104 21.28 59.777 21.44C60.0437 21.6 60.3437 21.68 60.677 21.68ZM68.4609 25V14.06H72.9809V25H68.4609ZM70.7209 13.18C69.8943 13.18 69.2343 12.96 68.7409 12.52C68.2476 12.08 68.0009 11.5333 68.0009 10.88C68.0009 10.2267 68.2476 9.68 68.7409 9.24C69.2343 8.8 69.8943 8.58 70.7209 8.58C71.5476 8.58 72.2076 8.78667 72.7009 9.2C73.1943 9.61333 73.4409 10.1467 73.4409 10.8C73.4409 11.4933 73.1943 12.0667 72.7009 12.52C72.2076 12.96 71.5476 13.18 70.7209 13.18ZM80.5444 29.08C79.4644 29.08 78.451 28.9667 77.5044 28.74C76.5577 28.5133 75.7444 28.1733 75.0644 27.72L76.5844 24.64C77.011 24.9733 77.551 25.2333 78.2044 25.42C78.871 25.62 79.4977 25.72 80.0844 25.72C81.0177 25.72 81.6844 25.52 82.0844 25.12C82.4844 24.7333 82.6844 24.1733 82.6844 23.44V22.52L82.8844 19.12L82.9044 15.72V14.06H87.2044V22.82C87.2044 24.94 86.6177 26.5133 85.4444 27.54C84.271 28.5667 82.6377 29.08 80.5444 29.08ZM79.6644 24.4C78.7444 24.4 77.8844 24.1867 77.0844 23.76C76.2844 23.32 75.6377 22.7067 75.1444 21.92C74.651 21.1333 74.4044 20.2 74.4044 19.12C74.4044 18.04 74.651 17.1067 75.1444 16.32C75.6377 15.5333 76.2844 14.9267 77.0844 14.5C77.8844 14.0733 78.7444 13.86 79.6644 13.86C80.611 13.86 81.3844 14.0467 81.9844 14.42C82.5977 14.7933 83.051 15.3733 83.3444 16.16C83.6377 16.9333 83.7844 17.92 83.7844 19.12C83.7844 20.32 83.6377 21.3133 83.3444 22.1C83.051 22.8733 82.5977 23.4533 81.9844 23.84C81.3844 24.2133 80.611 24.4 79.6644 24.4ZM80.8644 20.88C81.2244 20.88 81.5444 20.8067 81.8244 20.66C82.1044 20.5133 82.3244 20.3067 82.4844 20.04C82.6444 19.7733 82.7244 19.4667 82.7244 19.12C82.7244 18.76 82.6444 18.4533 82.4844 18.2C82.3244 17.9333 82.1044 17.7333 81.8244 17.6C81.5444 17.4533 81.2244 17.38 80.8644 17.38C80.5177 17.38 80.1977 17.4533 79.9044 17.6C79.6244 17.7333 79.3977 17.9333 79.2244 18.2C79.0644 18.4533 78.9844 18.76 78.9844 19.12C78.9844 19.4667 79.0644 19.7733 79.2244 20.04C79.3977 20.3067 79.6244 20.5133 79.9044 20.66C80.1977 20.8067 80.5177 20.88 80.8644 20.88ZM89.2031 25V14.06H93.5031V17.36L92.8031 16.42C93.1365 15.5667 93.6698 14.9267 94.4031 14.5C95.1365 14.0733 96.0165 13.86 97.0431 13.86V17.86C96.8431 17.8333 96.6631 17.8133 96.5031 17.8C96.3565 17.7867 96.2031 17.78 96.0431 17.78C95.3631 17.78 94.8031 17.96 94.3631 18.32C93.9365 18.6667 93.7231 19.2733 93.7231 20.14V25H89.2031ZM104.339 25V23.06L104.019 22.54V18.86C104.019 18.3267 103.852 17.92 103.519 17.64C103.199 17.36 102.672 17.22 101.939 17.22C101.445 17.22 100.945 17.3 100.439 17.46C99.9321 17.6067 99.4988 17.8133 99.1388 18.08L97.6988 15.1C98.3388 14.7 99.1054 14.3933 99.9988 14.18C100.892 13.9667 101.765 13.86 102.619 13.86C104.499 13.86 105.952 14.28 106.979 15.12C108.019 15.96 108.539 17.2933 108.539 19.12V25H104.339ZM101.239 25.2C100.345 25.2 99.5988 25.0467 98.9988 24.74C98.3988 24.4333 97.9454 24.0267 97.6388 23.52C97.3321 23 97.1788 22.4267 97.1788 21.8C97.1788 21.0933 97.3588 20.4933 97.7188 20C98.0788 19.5067 98.6254 19.1333 99.3587 18.88C100.105 18.6267 101.045 18.5 102.179 18.5H104.459V20.68H102.899C102.419 20.68 102.065 20.76 101.839 20.92C101.625 21.0667 101.519 21.2933 101.519 21.6C101.519 21.8533 101.612 22.0667 101.799 22.24C101.999 22.4 102.265 22.48 102.599 22.48C102.905 22.48 103.185 22.4 103.439 22.24C103.705 22.0667 103.899 21.8 104.019 21.44L104.599 22.78C104.425 23.5933 104.059 24.2 103.499 24.6C102.939 25 102.185 25.2 101.239 25.2ZM124.972 13.86C125.799 13.86 126.539 14.0333 127.192 14.38C127.859 14.7133 128.379 15.24 128.752 15.96C129.139 16.68 129.332 17.6133 129.332 18.76V25H124.812V19.54C124.812 18.86 124.699 18.38 124.472 18.1C124.246 17.8067 123.952 17.66 123.592 17.66C123.326 17.66 123.086 17.7267 122.872 17.86C122.659 17.9933 122.486 18.2067 122.352 18.5C122.232 18.78 122.172 19.1667 122.172 19.66V25H117.652V19.54C117.652 18.86 117.546 18.38 117.332 18.1C117.119 17.8067 116.819 17.66 116.432 17.66C116.166 17.66 115.926 17.7267 115.712 17.86C115.499 17.9933 115.326 18.2067 115.192 18.5C115.072 18.78 115.012 19.1667 115.012 19.66V25H110.492V14.06H114.792V17.2L113.912 16.32C114.326 15.4933 114.879 14.88 115.572 14.48C116.266 14.0667 117.039 13.86 117.892 13.86C118.852 13.86 119.699 14.1133 120.432 14.62C121.179 15.1133 121.679 15.9 121.932 16.98L120.552 16.76C120.952 15.8533 121.532 15.1467 122.292 14.64C123.066 14.12 123.959 13.86 124.972 13.86Z" fill="#2B2B2B"/>
</svg>
