<svg width="36" height="36" viewBox="0 0 36 36" fill="none" xmlns="http://www.w3.org/2000/svg">
<path fill-rule="evenodd" clip-rule="evenodd" d="M17.6664 9.8C17.6664 7.46667 18.1513 7 19.121 7C20.0907 7 22.2725 7.93333 22.2725 10.7333C22.2725 13.0667 21.5453 14.4667 21.5453 14.4667H26.1223C28.5271 14.4667 30.3502 16.548 29.9429 18.8347L28.8568 24.9013C28.5368 26.6933 26.9271 28 25.0362 28H23.4847C18.6604 28 15.5525 26.9752 14 26.2836V14.7215C15.4352 13.8021 17.6664 12.0176 17.6664 9.8ZM11.25 28H8.75C7.785 28 7 27.2673 7 26.3667V15.6333C7 14.7327 7.785 14 8.75 14H11.25C12.215 14 13 14.7327 13 15.6333V26.3667C13 27.2673 12.215 28 11.25 28Z" fill="white"/>
</svg>
