<svg width="40" height="40" viewBox="0 0 40 40" fill="none" xmlns="http://www.w3.org/2000/svg">
<path d="M4 39.5C2.07 39.5 0.5 37.93 0.5 36V4C0.5 2.07 2.07 0.5 4 0.5H36C37.93 0.5 39.5 2.07 39.5 4V36C39.5 37.93 37.93 39.5 36 39.5H4Z" fill="#F5F7FA"/>
<path d="M36 1C37.65 1 39 2.35 39 4V36C39 37.65 37.65 39 36 39H4C2.35 39 1 37.65 1 36V4C1 2.35 2.35 1 4 1H36ZM36 0H4C1.8 0 0 1.8 0 4V36C0 38.2 1.8 40 4 40H36C38.2 40 40 38.2 40 36V4C40 1.8 38.2 0 36 0Z" fill="#E6E6EA"/>
<g clip-path="url(#clip0_1038_6305)">
<path fill-rule="evenodd" clip-rule="evenodd" d="M28.9999 20.2048C29.0006 19.5873 28.9448 18.971 28.8329 18.3633H20.1812V21.8446H25.1239C25.0213 22.3947 24.8061 22.9187 24.4911 23.385C24.1762 23.8513 23.7681 24.2502 23.2915 24.5577V26.8164H26.259C27.9954 25.2496 28.9973 22.9417 28.9973 20.2031L28.9999 20.2048Z" fill="#3E82F1"/>
<path fill-rule="evenodd" clip-rule="evenodd" d="M20.1836 28.9989C22.6632 28.9989 24.7422 28.1934 26.2615 26.819L23.2939 24.5603C22.4712 25.1004 21.4191 25.4201 20.1836 25.4201C17.7914 25.4201 15.7669 23.8363 15.0453 21.709H11.9766V24.0414C12.741 25.5322 13.9134 26.7853 15.3627 27.6607C16.812 28.5362 18.4811 28.9995 20.1836 28.9989Z" fill="#32A753"/>
<path fill-rule="evenodd" clip-rule="evenodd" d="M15.0455 21.7089C14.6614 20.6002 14.6614 19.3982 15.0455 18.2895V15.957H11.9767C11.3345 17.2115 11 18.5957 11 19.9992C11 21.4027 11.3345 22.7869 11.9767 24.0413L15.0455 21.7089Z" fill="#F9BB00"/>
<path fill-rule="evenodd" clip-rule="evenodd" d="M20.1839 14.5788C21.5327 14.5788 22.743 15.0333 23.6947 15.9252L26.3283 13.3435C24.7381 11.8911 22.6591 11 20.1856 11C18.4831 10.9994 16.8139 11.4627 15.3646 12.3381C13.9153 13.2135 12.743 14.4667 11.9785 15.9574L15.0473 18.2899C15.7689 16.1626 17.7934 14.5788 20.1856 14.5788H20.1839Z" fill="#E74133"/>
</g>
<defs>
<clipPath id="clip0_1038_6305">
<rect width="18" height="18" fill="white" transform="translate(11 11)"/>
</clipPath>
</defs>
</svg>
