<svg width="122" height="70" viewBox="0 0 122 70" fill="none" xmlns="http://www.w3.org/2000/svg">
<path d="M42.1479 26.176C42.1479 26.496 42.0199 26.752 41.8279 26.976C41.5719 27.168 41.3159 27.264 41.0279 27.264H19.9719C17.7959 27.264 16.7399 26.176 16.7399 24V19.584C16.7399 19.296 16.8359 19.04 17.0599 18.816C17.2519 18.624 17.5079 18.528 17.8279 18.528H34.8839V17.632H17.6999C17.3799 17.632 17.1239 17.536 16.9319 17.312C16.7079 17.12 16.6119 16.896 16.6119 16.576V14.592C16.6119 14.304 16.7079 14.048 16.9319 13.824C17.1239 13.632 17.3799 13.536 17.6999 13.536H40.8679C41.1559 13.536 41.4119 13.664 41.6679 13.856C41.8599 14.112 41.9879 14.368 41.9879 14.656V21.216C41.9879 21.536 41.8599 21.76 41.6679 21.952C41.4119 22.176 41.1559 22.272 40.8679 22.272H23.9079V23.104H41.0279C41.3159 23.104 41.5719 23.2 41.8279 23.424C42.0199 23.616 42.1479 23.872 42.1479 24.192V26.176ZM19.3959 12.448C18.2439 12.448 17.3479 12.16 16.7399 11.584C16.0999 11.04 15.8119 10.144 15.8119 8.928V1.408C15.8119 1.12 15.9079 0.864 16.1319 0.640001C16.3239 0.448 16.5479 0.320002 16.8679 0.320002H21.8919C22.1799 0.320002 22.4359 0.448 22.6599 0.640001C22.8519 0.864 22.9799 1.12 22.9799 1.408V7.488H32.3559C32.6439 7.488 32.8999 7.616 33.1239 7.808C33.3159 8.064 33.4439 8.32 33.4439 8.64V11.36C33.4439 11.68 33.3159 11.936 33.1239 12.128C32.8999 12.352 32.6439 12.448 32.3559 12.448H19.3959ZM40.8999 0C41.1879 0 41.4439 0.128 41.6679 0.320002C41.8599 0.544001 41.9879 0.800001 41.9879 1.088V3.456H44.1319C44.4199 3.456 44.6759 3.584 44.8999 3.776C45.0919 4.032 45.2199 4.288 45.2199 4.608V7.872C45.2199 8.192 45.0919 8.448 44.8999 8.64C44.6759 8.864 44.4199 8.96 44.1319 8.96H41.9879V11.648C41.9879 11.968 41.8599 12.224 41.6679 12.416C41.4439 12.64 41.1879 12.736 40.8999 12.736H36.0999C35.7799 12.736 35.5239 12.64 35.3319 12.416C35.1079 12.224 35.0119 11.968 35.0119 11.648V1.088C35.0119 0.800001 35.1079 0.544001 35.3319 0.320002C35.5239 0.128 35.7799 0 36.0999 0H40.8999Z" fill="#373737"/>
<path d="M63.7629 0.640001C64.0829 0.640001 64.3389 0.768002 64.5629 0.960001C64.7549 1.184 64.8829 1.44 64.8829 1.728V21.184C64.8829 22.976 64.4349 24.32 63.5709 25.248C62.6749 26.144 61.2669 26.624 59.4109 26.624H52.7549C49.0749 26.624 47.2509 24.8 47.2509 21.184V1.728C47.2509 1.44 47.3469 1.184 47.6029 0.960001C47.7949 0.768002 48.0509 0.640001 48.3709 0.640001H63.7629ZM54.0349 21.184H58.1629V6.08H54.0349V21.184ZM72.3389 0.320002C72.6269 0.320002 72.8829 0.448 73.1069 0.640001C73.2989 0.864 73.4269 1.12 73.4269 1.408V9.216H75.5709C75.8589 9.216 76.1149 9.344 76.3389 9.536C76.5309 9.792 76.6589 10.048 76.6589 10.368V14.272C76.6589 14.592 76.5309 14.848 76.3389 15.04C76.1149 15.264 75.8589 15.36 75.5709 15.36H73.4269V26.496C73.4269 26.816 73.2989 27.072 73.1069 27.296C72.8829 27.488 72.6269 27.584 72.3389 27.584H67.5069C67.1869 27.584 66.9629 27.488 66.7709 27.296C66.5469 27.072 66.4509 26.816 66.4509 26.496V1.408C66.4509 1.12 66.5469 0.864 66.7709 0.640001C66.9629 0.448 67.1869 0.320002 67.5069 0.320002H72.3389Z" fill="#373737"/>
<path d="M94.8499 0.640001C95.1379 0.640001 95.3939 0.768002 95.6179 0.960001C95.8099 1.216 95.9379 1.472 95.9379 1.792V4.992C95.9379 5.312 95.8099 5.568 95.6179 5.76C95.3939 5.984 95.1379 6.08 94.8499 6.08H85.4099V21.184H95.4899C95.7779 21.184 96.0339 21.312 96.2579 21.504C96.4499 21.76 96.5779 22.016 96.5779 22.336V25.536C96.5779 25.824 96.4499 26.08 96.2579 26.304C96.0339 26.496 95.7779 26.624 95.4899 26.624H84.1299C80.4499 26.624 78.6259 24.8 78.6259 21.184V1.728C78.6259 1.44 78.7219 1.184 78.9779 0.960001C79.1699 0.768002 79.4259 0.640001 79.7459 0.640001H94.8499ZM103.714 0.320002C104.002 0.320002 104.258 0.448 104.482 0.640001C104.674 0.864 104.802 1.12 104.802 1.408V9.216H106.946C107.234 9.216 107.49 9.344 107.714 9.536C107.906 9.792 108.034 10.048 108.034 10.368V14.272C108.034 14.592 107.906 14.848 107.714 15.04C107.49 15.264 107.234 15.36 106.946 15.36H104.802V26.496C104.802 26.816 104.674 27.072 104.482 27.296C104.258 27.488 104.002 27.584 103.714 27.584H98.8819C98.5619 27.584 98.3379 27.488 98.1459 27.296C97.9219 27.072 97.8259 26.816 97.8259 26.496V1.408C97.8259 1.12 97.9219 0.864 98.1459 0.640001C98.3379 0.448 98.5619 0.320002 98.8819 0.320002H103.714Z" fill="#373737"/>
<path d="M20.992 42.32C21.28 42.32 21.536 42.448 21.76 42.64C21.952 42.864 22.08 43.12 22.08 43.408V68.24C22.08 68.56 21.952 68.816 21.76 69.04C21.536 69.232 21.28 69.328 20.992 69.328H17.056C16.736 69.328 16.512 69.232 16.32 69.04C16.096 68.816 16 68.56 16 68.24V57.2H14.24V61.712C14.24 62.736 14.112 63.632 13.856 64.464C13.6 65.296 13.216 66.032 12.736 66.672C12.224 67.28 11.616 67.76 10.88 68.112C10.112 68.432 9.216 68.624 8.256 68.624H5.952C4.928 68.624 4.064 68.432 3.328 68.112C2.56 67.76 1.952 67.28 1.472 66.672C0.96 66.032 0.608 65.296 0.384 64.464C0.128 63.632 0 62.736 0 61.712V49.264C0 48.272 0.128 47.344 0.384 46.48C0.608 45.648 0.96 44.912 1.472 44.272C1.952 43.664 2.56 43.184 3.328 42.832C4.064 42.512 4.928 42.32 5.952 42.32H8.256C9.216 42.32 10.112 42.512 10.88 42.832C11.616 43.184 12.224 43.664 12.736 44.272C13.216 44.912 13.6 45.648 13.856 46.48C14.112 47.344 14.24 48.272 14.24 49.264V51.056H16V43.408C16 43.12 16.096 42.864 16.32 42.64C16.512 42.448 16.736 42.32 17.056 42.32H20.992ZM28.416 42.32C28.704 42.32 28.96 42.448 29.184 42.64C29.376 42.864 29.504 43.12 29.504 43.408V68.496C29.504 68.816 29.376 69.072 29.184 69.296C28.96 69.488 28.704 69.584 28.416 69.584H24.416C24.096 69.584 23.872 69.488 23.68 69.296C23.456 69.072 23.36 68.816 23.36 68.496V43.408C23.36 43.12 23.456 42.864 23.68 42.64C23.872 42.448 24.096 42.32 24.416 42.32H28.416ZM7.104 47.76C6.784 47.76 6.528 47.888 6.304 48.112C6.048 48.368 5.92 48.848 5.92 49.616V61.36C5.92 62.128 6.048 62.608 6.304 62.832C6.528 63.088 6.784 63.184 7.104 63.184H7.264C7.552 63.184 7.84 63.088 8.096 62.832C8.352 62.608 8.48 62.128 8.48 61.36V49.616C8.48 48.848 8.352 48.368 8.096 48.112C7.84 47.888 7.552 47.76 7.264 47.76H7.104Z" fill="#373737"/>
<path d="M33.2405 68.624C32.9205 68.624 32.6645 68.496 32.4725 68.304C32.2485 68.08 32.1525 67.824 32.1525 67.536V64.336C32.1525 64.016 32.2485 63.76 32.4725 63.504C32.6645 63.312 32.9205 63.184 33.2405 63.184H34.0725V48.08H33.5605C33.2405 48.08 32.9845 47.984 32.7925 47.76C32.5685 47.568 32.4725 47.312 32.4725 46.992V43.792C32.4725 43.472 32.5685 43.216 32.7925 42.96C32.9845 42.768 33.2405 42.64 33.5605 42.64H49.0165C49.3045 42.64 49.5605 42.768 49.7845 42.96C49.9765 43.216 50.1045 43.472 50.1045 43.792V46.992C50.1045 47.312 49.9765 47.568 49.7845 47.76C49.5605 47.984 49.3045 48.08 49.0165 48.08H48.5045V63.184H49.3365C49.6245 63.184 49.8805 63.312 50.1045 63.504C50.2965 63.76 50.4245 64.016 50.4245 64.336V67.536C50.4245 67.824 50.2965 68.08 50.1045 68.304C49.8805 68.496 49.6245 68.624 49.3365 68.624H33.2405ZM58.2005 42.32C58.4885 42.32 58.7445 42.448 58.9685 42.64C59.1605 42.864 59.2885 43.12 59.2885 43.408V68.496C59.2885 68.816 59.1605 69.072 58.9685 69.296C58.7445 69.488 58.4885 69.584 58.2005 69.584H53.3685C53.0485 69.584 52.8245 69.488 52.6325 69.296C52.4085 69.072 52.3125 68.816 52.3125 68.496V43.408C52.3125 43.12 52.4085 42.864 52.6325 42.64C52.8245 42.448 53.0485 42.32 53.3685 42.32H58.2005ZM40.2165 63.184H42.5205V48.08H40.2165V63.184Z" fill="#373737"/>
<path d="M64.0785 48.4C63.7585 48.4 63.5025 48.304 63.3105 48.08C63.0865 47.888 62.9905 47.632 62.9905 47.312V43.472C62.9905 43.152 63.0865 42.896 63.3105 42.64C63.5025 42.448 63.7585 42.32 64.0785 42.32H87.4705C87.7905 42.32 88.0465 42.448 88.2705 42.64C88.4625 42.864 88.5905 43.12 88.5905 43.408V58.896C88.5905 59.216 88.4625 59.472 88.2705 59.664C88.0465 59.888 87.7905 59.984 87.5025 59.984H82.7665C82.4465 59.984 82.1585 59.888 81.9665 59.664C81.7105 59.472 81.6145 59.216 81.6145 58.896V48.4H64.0785ZM88.6545 63.696C88.9425 63.696 89.1985 63.824 89.4225 64.016C89.6145 64.24 89.7105 64.496 89.7105 64.784V68.176C89.7105 68.496 89.6145 68.752 89.4225 68.976C89.1985 69.168 88.9425 69.264 88.6545 69.264H62.9265C62.6065 69.264 62.3825 69.168 62.1905 68.976C61.9665 68.752 61.8705 68.496 61.8705 68.176V64.784C61.8705 64.496 61.9665 64.24 62.1905 64.016C62.3825 63.824 62.6065 63.696 62.9265 63.696H88.6545Z" fill="#373737"/>
<path d="M105.916 49.712C105.916 50.032 105.788 50.288 105.596 50.48C105.372 50.704 105.116 50.8 104.828 50.8H97.9163V51.504H105.468C105.756 51.504 106.012 51.632 106.236 51.824C106.428 52.08 106.556 52.336 106.556 52.656V54.64C106.556 54.96 106.428 55.216 106.236 55.408C106.012 55.632 105.756 55.728 105.468 55.728H95.9003C94.7483 55.728 93.8522 55.44 93.2442 54.864C92.6042 54.32 92.3163 53.424 92.3163 52.208V48.304C92.3163 47.984 92.4123 47.728 92.6363 47.472C92.8283 47.28 93.0843 47.152 93.4043 47.152H100.444V46.48H93.2442C92.9242 46.48 92.6683 46.384 92.4762 46.16C92.2523 45.968 92.1562 45.712 92.1562 45.392V43.472C92.1562 43.152 92.2523 42.896 92.4762 42.64C92.6683 42.448 92.9242 42.32 93.2442 42.32H104.796C105.084 42.32 105.34 42.448 105.596 42.64C105.788 42.864 105.916 43.12 105.916 43.408V49.712ZM112.764 42C113.052 42 113.308 42.128 113.532 42.32C113.724 42.544 113.852 42.8 113.852 43.088V45.776H115.356V43.088C115.356 42.8 115.452 42.544 115.676 42.32C115.868 42.128 116.092 42 116.412 42H120.572C120.86 42 121.116 42.128 121.34 42.32C121.532 42.544 121.66 42.8 121.66 43.088V54.768C121.66 55.088 121.532 55.344 121.34 55.536C121.116 55.76 120.86 55.856 120.572 55.856H116.412C116.092 55.856 115.868 55.76 115.676 55.536C115.452 55.344 115.356 55.088 115.356 54.768V51.28H113.852V54.704C113.852 55.024 113.724 55.28 113.532 55.472C113.308 55.696 113.052 55.792 112.764 55.792H108.668C108.348 55.792 108.124 55.696 107.932 55.472C107.708 55.28 107.612 55.024 107.612 54.704V43.088C107.612 42.8 107.708 42.544 107.932 42.32C108.124 42.128 108.348 42 108.668 42H112.764ZM100.348 64.4H114.94V61.776H100.348V64.4ZM97.2122 69.264C96.0602 69.264 95.1643 68.976 94.5563 68.432C93.9163 67.856 93.6283 66.96 93.6283 65.744V58.064C93.6283 57.776 93.7243 57.52 93.9802 57.296C94.1722 57.104 94.4283 56.976 94.7483 56.976H120.54C120.86 56.976 121.116 57.104 121.34 57.296C121.532 57.52 121.66 57.776 121.66 58.064V65.744C121.66 66.96 121.34 67.856 120.732 68.432C120.092 68.976 119.228 69.264 118.076 69.264H97.2122Z" fill="#373737"/>
</svg>
