<svg width="102" height="26" viewBox="0 0 102 26" fill="none" xmlns="http://www.w3.org/2000/svg">
<path d="M20.1807 8.73365L13.4242 5.44873C13.2566 5.36721 13.0617 5.36286 12.8905 5.43683L5.262 8.73365L12.863 12.4292C13.0494 12.5198 13.2681 12.5146 13.45 12.4151L20.1807 8.73365Z" fill="#2B2B2B"/>
<path d="M5.262 8.73365L12.863 12.4292C13.0494 12.5198 13.2681 12.5146 13.45 12.4151L20.1807 8.73365L13.4242 5.44873C13.2566 5.36721 13.0617 5.36286 12.8905 5.43683L5.262 8.73365ZM5.262 8.73365C5.262 8.73365 4.85682 9.75408 4.82321 10.4403C4.78165 11.289 5.262 12.5736 5.262 12.5736M20.1807 12.5736L13.45 16.2551C13.2681 16.3546 13.0494 16.3598 12.863 16.2692L5.262 12.5736M5.262 12.5736C5.262 12.5736 4.82321 13.8574 4.82321 14.707C4.82321 15.5566 5.262 16.8403 5.262 16.8403L12.863 20.5359C13.0494 20.6265 13.2681 20.6212 13.45 20.5218L20.1807 16.8403" stroke="#2B2B2B" stroke-width="1.92" stroke-linecap="round" stroke-linejoin="round"/>
<path d="M32.868 11.96H37.86V14.68H32.868V11.96ZM33.124 16.152H38.724V19H29.412V7.8H38.516V10.648H33.124V16.152ZM45.9056 19.16C45.1483 19.16 44.519 19 44.0176 18.68C43.527 18.3493 43.1643 17.8533 42.9296 17.192C42.695 16.52 42.5776 15.6667 42.5776 14.632C42.5776 13.576 42.6843 12.7173 42.8976 12.056C43.1216 11.384 43.479 10.888 43.9696 10.568C44.4603 10.248 45.1056 10.088 45.9056 10.088C46.6736 10.088 47.3776 10.2747 48.0176 10.648C48.6576 11.0107 49.1696 11.5333 49.5536 12.216C49.9376 12.888 50.1296 13.6933 50.1296 14.632C50.1296 15.5707 49.9376 16.3813 49.5536 17.064C49.1696 17.736 48.6576 18.2533 48.0176 18.616C47.3776 18.9787 46.6736 19.16 45.9056 19.16ZM40.0656 22.104V10.248H43.5056V11.432L43.5216 14.632L43.6816 17.832V22.104H40.0656ZM45.0416 16.344C45.3083 16.344 45.5483 16.28 45.7616 16.152C45.975 16.024 46.1456 15.832 46.2736 15.576C46.4016 15.32 46.4656 15.0053 46.4656 14.632C46.4656 14.248 46.4016 13.928 46.2736 13.672C46.1456 13.416 45.975 13.224 45.7616 13.096C45.5483 12.968 45.3083 12.904 45.0416 12.904C44.775 12.904 44.535 12.968 44.3216 13.096C44.1083 13.224 43.9376 13.416 43.8096 13.672C43.6816 13.928 43.6176 14.248 43.6176 14.632C43.6176 15.0053 43.6816 15.32 43.8096 15.576C43.9376 15.832 44.1083 16.024 44.3216 16.152C44.535 16.28 44.775 16.344 45.0416 16.344ZM51.2688 19V10.248H54.8848V19H51.2688ZM53.0768 9.544C52.4154 9.544 51.8874 9.368 51.4928 9.016C51.0981 8.664 50.9008 8.22667 50.9008 7.704C50.9008 7.18133 51.0981 6.744 51.4928 6.392C51.8874 6.04 52.4154 5.864 53.0768 5.864C53.7381 5.864 54.2661 6.02933 54.6608 6.36C55.0554 6.69067 55.2528 7.11733 55.2528 7.64C55.2528 8.19467 55.0554 8.65333 54.6608 9.016C54.2661 9.368 53.7381 9.544 53.0768 9.544ZM60.9355 22.264C60.0715 22.264 59.2608 22.1733 58.5035 21.992C57.7462 21.8107 57.0955 21.5387 56.5515 21.176L57.7675 18.712C58.1088 18.9787 58.5408 19.1867 59.0635 19.336C59.5968 19.496 60.0982 19.576 60.5675 19.576C61.3142 19.576 61.8475 19.416 62.1675 19.096C62.4875 18.7867 62.6475 18.3387 62.6475 17.752V17.016L62.8075 14.296L62.8235 11.576V10.248H66.2635V17.256C66.2635 18.952 65.7942 20.2107 64.8555 21.032C63.9168 21.8533 62.6102 22.264 60.9355 22.264ZM60.2315 18.52C59.4955 18.52 58.8075 18.3493 58.1675 18.008C57.5275 17.656 57.0102 17.1653 56.6155 16.536C56.2208 15.9067 56.0235 15.16 56.0235 14.296C56.0235 13.432 56.2208 12.6853 56.6155 12.056C57.0102 11.4267 57.5275 10.9413 58.1675 10.6C58.8075 10.2587 59.4955 10.088 60.2315 10.088C60.9888 10.088 61.6075 10.2373 62.0875 10.536C62.5782 10.8347 62.9408 11.2987 63.1755 11.928C63.4102 12.5467 63.5275 13.336 63.5275 14.296C63.5275 15.256 63.4102 16.0507 63.1755 16.68C62.9408 17.2987 62.5782 17.7627 62.0875 18.072C61.6075 18.3707 60.9888 18.52 60.2315 18.52ZM61.1915 15.704C61.4795 15.704 61.7355 15.6453 61.9595 15.528C62.1835 15.4107 62.3595 15.2453 62.4875 15.032C62.6155 14.8187 62.6795 14.5733 62.6795 14.296C62.6795 14.008 62.6155 13.7627 62.4875 13.56C62.3595 13.3467 62.1835 13.1867 61.9595 13.08C61.7355 12.9627 61.4795 12.904 61.1915 12.904C60.9142 12.904 60.6582 12.9627 60.4235 13.08C60.1995 13.1867 60.0182 13.3467 59.8795 13.56C59.7515 13.7627 59.6875 14.008 59.6875 14.296C59.6875 14.5733 59.7515 14.8187 59.8795 15.032C60.0182 15.2453 60.1995 15.4107 60.4235 15.528C60.6582 15.6453 60.9142 15.704 61.1915 15.704ZM67.8625 19V10.248H71.3025V12.888L70.7425 12.136C71.0092 11.4533 71.4358 10.9413 72.0225 10.6C72.6092 10.2587 73.3132 10.088 74.1345 10.088V13.288C73.9745 13.2667 73.8305 13.2507 73.7025 13.24C73.5852 13.2293 73.4625 13.224 73.3345 13.224C72.7905 13.224 72.3425 13.368 71.9905 13.656C71.6492 13.9333 71.4785 14.4187 71.4785 15.112V19H67.8625ZM79.971 19V17.448L79.715 17.032V14.088C79.715 13.6613 79.5817 13.336 79.315 13.112C79.059 12.888 78.6377 12.776 78.051 12.776C77.6563 12.776 77.2563 12.84 76.851 12.968C76.4457 13.0853 76.099 13.2507 75.811 13.464L74.659 11.08C75.171 10.76 75.7843 10.5147 76.499 10.344C77.2137 10.1733 77.9123 10.088 78.595 10.088C80.099 10.088 81.2617 10.424 82.083 11.096C82.915 11.768 83.331 12.8347 83.331 14.296V19H79.971ZM77.491 19.16C76.7763 19.16 76.179 19.0373 75.699 18.792C75.219 18.5467 74.8563 18.2213 74.611 17.816C74.3657 17.4 74.243 16.9413 74.243 16.44C74.243 15.8747 74.387 15.3947 74.675 15C74.963 14.6053 75.4003 14.3067 75.987 14.104C76.5843 13.9013 77.3363 13.8 78.243 13.8H80.067V15.544H78.819C78.435 15.544 78.1523 15.608 77.971 15.736C77.8003 15.8533 77.715 16.0347 77.715 16.28C77.715 16.4827 77.7897 16.6533 77.939 16.792C78.099 16.92 78.3123 16.984 78.579 16.984C78.8243 16.984 79.0483 16.92 79.251 16.792C79.4643 16.6533 79.619 16.44 79.715 16.152L80.179 17.224C80.0403 17.8747 79.747 18.36 79.299 18.68C78.851 19 78.2483 19.16 77.491 19.16ZM96.4778 10.088C97.1391 10.088 97.7311 10.2267 98.2538 10.504C98.7871 10.7707 99.2031 11.192 99.5018 11.768C99.8111 12.344 99.9658 13.0907 99.9658 14.008V19H96.3498V14.632C96.3498 14.088 96.2591 13.704 96.0778 13.48C95.8964 13.2453 95.6618 13.128 95.3738 13.128C95.1604 13.128 94.9684 13.1813 94.7978 13.288C94.6271 13.3947 94.4884 13.5653 94.3818 13.8C94.2858 14.024 94.2378 14.3333 94.2378 14.728V19H90.6218V14.632C90.6218 14.088 90.5364 13.704 90.3658 13.48C90.1951 13.2453 89.9551 13.128 89.6458 13.128C89.4324 13.128 89.2404 13.1813 89.0698 13.288C88.8991 13.3947 88.7604 13.5653 88.6538 13.8C88.5578 14.024 88.5098 14.3333 88.5098 14.728V19H84.8938V10.248H88.3338V12.76L87.6298 12.056C87.9604 11.3947 88.4031 10.904 88.9578 10.584C89.5124 10.2533 90.1311 10.088 90.8138 10.088C91.5818 10.088 92.2591 10.2907 92.8458 10.696C93.4431 11.0907 93.8431 11.72 94.0458 12.584L92.9418 12.408C93.2618 11.6827 93.7258 11.1173 94.3338 10.712C94.9524 10.296 95.6671 10.088 96.4778 10.088Z" fill="#2B2B2B"/>
</svg>
