<svg width="40" height="40" viewBox="0 0 40 40" fill="none" xmlns="http://www.w3.org/2000/svg">
<path d="M4 39.5C2.07 39.5 0.5 37.93 0.5 36V4C0.5 2.07 2.07 0.5 4 0.5H36C37.93 0.5 39.5 2.07 39.5 4V36C39.5 37.93 37.93 39.5 36 39.5H4Z" fill="#F5F7FA"/>
<path d="M36 1C37.65 1 39 2.35 39 4V36C39 37.65 37.65 39 36 39H4C2.35 39 1 37.65 1 36V4C1 2.35 2.35 1 4 1H36ZM36 0H4C1.8 0 0 1.8 0 4V36C0 38.2 1.8 40 4 40H36C38.2 40 40 38.2 40 36V4C40 1.8 38.2 0 36 0Z" fill="#E6E6EA"/>
<g clip-path="url(#clip0_1038_6314)">
<path d="M17.3086 20.393H18.4605L17.8846 18.7969L17.3086 20.393Z" fill="#331D1E"/>
<path d="M20 12C14.4769 12 10 15.4426 10 19.6899C10 22.4358 11.8721 24.8478 14.6875 26.2057C14.5346 26.7205 13.7029 29.5198 13.6702 29.7402C13.6702 29.7402 13.65 29.9053 13.7596 29.9681C13.7963 29.9862 13.8364 29.9967 13.8774 29.9991C13.9184 30.0015 13.9594 29.9958 13.9981 29.9822C14.3135 29.939 17.6519 27.6555 18.2288 27.2626C18.8157 27.3421 19.4075 27.3812 20 27.3798C25.5231 27.3798 30 23.9372 30 19.6899C30 15.4426 25.5231 12 20 12ZM15.051 18.4961C15.0385 19.5839 15.0606 20.728 15.0423 21.799C15.0365 22.1413 14.8346 22.2435 14.5615 22.341C14.5307 22.3517 14.4975 22.3539 14.4654 22.3476C14.1529 22.2876 13.9038 22.1788 13.8962 21.7999C13.874 20.7299 13.9029 19.5839 13.8875 18.4961C13.6231 18.4858 13.2462 18.5064 13.001 18.4961C12.6606 18.4745 12.424 18.2635 12.4385 17.9494C12.4529 17.6352 12.625 17.4092 13.0067 17.4036C13.9087 17.3904 15.026 17.3904 15.9279 17.4036C16.3125 17.4092 16.4837 17.6361 16.4952 17.9494C16.5067 18.2626 16.274 18.4745 15.9346 18.4961C15.6923 18.5064 15.3163 18.4858 15.051 18.4961ZM19.8971 22.2895C19.7818 22.3407 19.6565 22.3672 19.5298 22.3673C19.2894 22.3673 19.1058 22.2735 19.049 22.1188L18.7606 21.3892H17.0048L16.7163 22.1188C16.6606 22.2716 16.4769 22.3673 16.2356 22.3673C16.1091 22.3673 15.9842 22.3408 15.8692 22.2895C15.7096 22.2182 15.5567 22.0213 15.7317 21.4905L17.1154 17.9475C17.1734 17.7914 17.2773 17.6555 17.4142 17.5568C17.551 17.458 17.7146 17.4008 17.8846 17.3923C18.0545 17.4017 18.2178 17.4594 18.3545 17.5582C18.4912 17.657 18.5952 17.7927 18.6538 17.9484L20.0327 21.4895C20.2087 22.0213 20.0558 22.2219 19.8971 22.2895ZM22.8125 22.2895H20.9615C20.8182 22.2922 20.6796 22.2395 20.5759 22.1429C20.4723 22.0462 20.4122 21.9135 20.4087 21.7737V17.955C20.4148 17.8067 20.4795 17.6664 20.5893 17.5636C20.6991 17.4608 20.8454 17.4033 20.9976 17.4033C21.1498 17.4033 21.2961 17.4608 21.4059 17.5636C21.5157 17.6664 21.5804 17.8067 21.5865 17.955V21.2607H22.8125C22.8846 21.2565 22.9569 21.2667 23.0248 21.2907C23.0928 21.3147 23.155 21.352 23.2076 21.4003C23.2602 21.4486 23.3021 21.5069 23.3308 21.5716C23.3594 21.6363 23.3742 21.706 23.3742 21.7765C23.3742 21.847 23.3594 21.9167 23.3308 21.9814C23.3021 22.0461 23.2602 22.1044 23.2076 22.1527C23.155 22.201 23.0928 22.2383 23.0248 22.2623C22.9569 22.2863 22.8846 22.2965 22.8125 22.2923V22.2895ZM27.3317 21.8656C27.3167 21.9766 27.2681 22.0807 27.1921 22.1646C27.1161 22.2485 27.0161 22.3084 26.9051 22.3365C26.794 22.3647 26.6768 22.36 26.5685 22.3229C26.4602 22.2857 26.3657 22.2179 26.2971 22.1282L24.9442 20.3811L24.7442 20.5761V21.8037C24.7442 21.9529 24.6834 22.096 24.5753 22.2016C24.4671 22.3071 24.3203 22.3664 24.1673 22.3664C24.0143 22.3664 23.8676 22.3071 23.7594 22.2016C23.6512 22.096 23.5904 21.9529 23.5904 21.8037V17.9587C23.5904 17.8095 23.6512 17.6664 23.7594 17.5609C23.8676 17.4553 24.0143 17.3961 24.1673 17.3961C24.3203 17.3961 24.4671 17.4553 24.5753 17.5609C24.6834 17.6664 24.7442 17.8095 24.7442 17.9587V19.1647L26.3538 17.5949C26.396 17.5542 26.446 17.5222 26.501 17.5006C26.556 17.479 26.6148 17.4684 26.674 17.4692C26.8181 17.4729 26.9557 17.5284 27.0604 17.6249C27.1651 17.7215 27.2295 17.8524 27.2413 17.9925C27.2465 18.055 27.238 18.1179 27.2162 18.1769C27.1945 18.2359 27.1601 18.2898 27.1154 18.3348L25.7981 19.6168L27.2183 21.452C27.3102 21.5711 27.35 21.7208 27.3288 21.8684L27.3317 21.8656Z" fill="#331D1E"/>
</g>
<defs>
<clipPath id="clip0_1038_6314">
<rect width="20" height="18" fill="white" transform="translate(10 12)"/>
</clipPath>
</defs>
</svg>
