<svg width="40" height="40" viewBox="0 0 40 40" fill="none" xmlns="http://www.w3.org/2000/svg">
<path d="M4 39.5C2.07 39.5 0.5 37.93 0.5 36V4C0.5 2.07 2.07 0.5 4 0.5H36C37.93 0.5 39.5 2.07 39.5 4V36C39.5 37.93 37.93 39.5 36 39.5H4Z" fill="#F5F7FA"/>
<path d="M36 1C37.65 1 39 2.35 39 4V36C39 37.65 37.65 39 36 39H4C2.35 39 1 37.65 1 36V4C1 2.35 2.35 1 4 1H36ZM36 0H4C1.8 0 0 1.8 0 4V36C0 38.2 1.8 40 4 40H36C38.2 40 40 38.2 40 36V4C40 1.8 38.2 0 36 0Z" fill="#E6E6EA"/>
<path d="M22.7298 20.5404L17.0498 12.4004H12.3398V27.6004H17.2698V19.4604L22.9498 27.6004H27.6598V12.4004H22.7298V20.5404Z" fill="#03C75A"/>
</svg>
