<svg xmlns="http://www.w3.org/2000/svg" width="48" height="48" fill="none">
  <g clip-path="url(#a)">
    <path fill="#FBC85B" d="M24 48c13.255 0 24-10.745 24-24S37.255 0 24 0 0 10.745 0 24s10.745 24 24 24Z"/>
    <path fill="#9A695E" d="M32.715 32.666c-.021 1.102-.988 3.777-4.41 5.435a9.839 9.839 0 0 1-8.61 0c-3.428-1.652-4.389-4.333-4.41-5.435-.04-.618.276-1.357 1.114-1.12 1.368.5 3.515.794 5.18.947a25.59 25.59 0 0 0 4.843 0c1.664-.159 3.81-.447 5.179-.948.838-.236 1.154.503 1.114 1.121Z"/>
    <path fill="#E46E80" d="M26.515 15.088c-.348 1.304-.183 2.626.523 4.165.63 1.376 1.664 2.878 2.864 4.616.41.593.87 1.268 1.348 1.978a.948.948 0 0 0 .536.384c.22.06.455.038.659-.065.77-.379 1.493-.738 2.16-1.038 1.907-.907 3.554-1.69 4.787-2.565 1.38-.982 2.185-2.043 2.535-3.347a4.987 4.987 0 0 0-.346-3.627 4.279 4.279 0 0 0-2.722-2.168 4.001 4.001 0 0 0-2.654.19c-.452.19-.875.446-1.254.759a5.167 5.167 0 0 0-.703-1.286 4.028 4.028 0 0 0-2.196-1.484 4.301 4.301 0 0 0-3.443.516 4.997 4.997 0 0 0-2.095 2.972ZM19.385 12.13a4.3 4.3 0 0 0-3.442-.516 4.027 4.027 0 0 0-2.197 1.484c-.294.393-.53.826-.703 1.286a5.062 5.062 0 0 0-1.254-.759 4.002 4.002 0 0 0-2.654-.19 4.28 4.28 0 0 0-2.721 2.168 4.988 4.988 0 0 0-.347 3.627c.35 1.305 1.155 2.366 2.536 3.348 1.233.874 2.88 1.657 4.787 2.564.65.31 1.389.66 2.16 1.038a.921.921 0 0 0 .659.065.948.948 0 0 0 .535-.384c.478-.71.94-1.384 1.349-1.978 1.2-1.738 2.221-3.243 2.863-4.616.707-1.539.871-2.86.524-4.164a4.997 4.997 0 0 0-2.095-2.973Z"/>
  </g>
  <defs>
    <clipPath id="a">
      <path fill="#fff" d="M0 0h48v48H0z"/>
    </clipPath>
  </defs>
</svg>