<svg xmlns="http://www.w3.org/2000/svg" width="48" height="48" fill="none">
  <g clip-path="url(#a)">
    <path fill="#FBC85B" d="M24 48c13.255 0 24-10.745 24-24S37.255 0 24 0 0 10.745 0 24s10.745 24 24 24Z"/>
    <path fill="#5195EE" d="M19.33 34.62c0 2.77-2.085 5.014-4.664 5.014-2.578 0-4.663-2.244-4.663-5.014 0-2.194 2.905-6.168 4.115-7.746a.658.658 0 0 1 1.061 0c1.245 1.578 4.15 5.56 4.15 7.746Z"/>
    <path fill="#3E414D" d="M17.813 21.75a2.625 2.625 0 1 0 0-5.25 2.625 2.625 0 0 0 0 5.25ZM30.188 21.75a2.625 2.625 0 1 0 0-5.25 2.625 2.625 0 0 0 0 5.25Z"/>
    <path stroke="#9A695E" stroke-linecap="round" stroke-width="2.151" d="M30.75 35.063a9.827 9.827 0 0 0-6.703-2.626c-.526 0-1.043.042-1.547.12"/>
  </g>
  <defs>
    <clipPath id="a">
      <path fill="#fff" d="M0 0h48v48H0z"/>
    </clipPath>
  </defs>
</svg>