<svg xmlns="http://www.w3.org/2000/svg" width="48" height="50" fill="none">
  <path fill="#FBC85B" d="M24 48c13.255 0 24-10.745 24-24S37.255 0 24 0 0 10.745 0 24s10.745 24 24 24Z"/>
  <path fill="#E8AA26" d="m20.828 41.34-.274-1.355 3.478-.708a1.92 1.92 0 0 0 1.245-.91c.275-.448.373-.982.274-1.498a.33.33 0 0 1 0-.066 2.035 2.035 0 0 0-.87-1.22 1.963 1.963 0 0 0-1.475-.297l-9.77 1.99a.547.547 0 0 1-.444-.089.617.617 0 0 1-.245-.367.587.587 0 0 1 .022-.307l.837-2.354v-.022a2.332 2.332 0 0 0-4.257-1.79l-2.276 3.867a9.548 9.548 0 0 0-1.125 6.75 8.146 8.146 0 0 0 9.6 6.363 6.772 6.772 0 0 0 5.29-7.981l-.01-.006Z"/>
  <path stroke="#3E414D" stroke-linecap="round" stroke-linejoin="round" stroke-width="1.792" d="M33.035 12.75s-1.635.301-3.553 1.467c-1.918 1.166-3.138 2.248-3.138 2.248M13.406 18.761s1.59-.362 3.832-.463a12.9 12.9 0 0 1 2.085.075"/>
  <path fill="#3E414D" d="M17.063 25.5a2.625 2.625 0 1 0 0-5.25 2.625 2.625 0 0 0 0 5.25Z"/>
  <rect width="4.031" height="7.031" x="28.969" y="18" fill="#494D59" rx="2.016"/>
  <path stroke="#9A695E" stroke-linecap="round" stroke-width="2.151" d="M29.87 33.014a9.826 9.826 0 0 0-7.024-1.576c-.52.08-1.025.2-1.51.354"/>
</svg>