<svg xmlns="http://www.w3.org/2000/svg" width="48" height="48" fill="none">
  <path fill="#E46E80" d="M24 48c13.255 0 24-10.745 24-24S37.255 0 24 0 0 10.745 0 24s10.745 24 24 24Z"/>
  <path fill="#494D59" d="M40.258 28.645H7.742c-.855 0-1.549.693-1.549 1.548v10.839c0 .855.694 1.548 1.549 1.548h32.516c.855 0 1.548-.693 1.548-1.548V30.193c0-.855-.693-1.549-1.548-1.549Z"/>
  <path fill="#F9FAFC" d="m37.095 37.549.614-.614a.774.774 0 1 0-1.095-1.095l-.614.614-.542-.543c.56-.424.93-1.09.93-1.846a2.325 2.325 0 0 0-2.323-2.323 2.325 2.325 0 0 0-2.323 2.323c0 .248.05.482.122.707a2.728 2.728 0 0 0-.886 2.237c.118 1.388 1.355 2.475 2.816 2.475.808 0 1.593-.315 2.194-.853l.626.626a.772.772 0 0 0 1.095 0 .774.774 0 0 0 0-1.094l-.614-.614Zm-3.03-4.258a.775.775 0 1 1-.002 1.55.775.775 0 0 1 .002-1.55Zm-.271 4.645c-.653 0-1.224-.475-1.274-1.057a1.16 1.16 0 0 1 .287-.867c.268.173.573.288.9.34l1.186 1.184c-.31.251-.698.4-1.1.4ZM16.722 31.897a.774.774 0 0 0-1.083.155l-4.645 6.193a.773.773 0 1 0 1.238.929l4.645-6.194a.773.773 0 0 0-.155-1.083ZM20.13 37.161a.774.774 0 0 0 .773-.774v-3.87a.774.774 0 1 0-1.548 0v3.87c0 .428.346.774.774.774ZM20.13 37.935a.774.774 0 1 0 0 1.549h.007a.77.77 0 0 0 .77-.774.777.777 0 0 0-.778-.775ZM29.42 33.29h-.17l.146-.587a.773.773 0 1 0-1.502-.375l-.24.962h-1.502l.147-.587a.773.773 0 0 0-.563-.938.769.769 0 0 0-.938.563l-.24.962H24a.774.774 0 1 0 0 1.548h.17l-.387 1.548h-.557a.774.774 0 1 0 0 1.549h.17l-.147.587a.773.773 0 1 0 1.502.375l.24-.962h1.502l-.147.587a.773.773 0 1 0 1.502.375l.24-.962h.557a.774.774 0 1 0 0-1.549h-.17l.387-1.548h.557a.774.774 0 1 0 0-1.548Zm-2.54 3.096h-1.502l.387-1.548h1.502l-.387 1.548ZM13.161 33.29a1.55 1.55 0 0 0-1.548-1.548 1.55 1.55 0 0 0-1.548 1.549 1.55 1.55 0 0 0 1.548 1.548 1.55 1.55 0 0 0 1.548-1.548ZM16.258 36.387a1.55 1.55 0 0 0-1.548 1.548 1.55 1.55 0 0 0 1.548 1.548 1.55 1.55 0 0 0 1.548-1.548 1.55 1.55 0 0 0-1.548-1.548Z"/>
  <path fill="#3E414D" d="M35.762 13.074c-.264-.383-.703-.397-1.172-.217 0 0-2.12.97-3.422 1.301-1.302.33-3.422.636-3.422.636-.425.084-.907.45-.88.914.029.466.428.82.894.792l.087-.006a21.14 21.14 0 0 0 1.06-.115 27.191 27.191 0 0 0 2.81-.531 13.632 13.632 0 0 0 2.765-1 11.002 11.002 0 0 0 .979-.544l.085-.056a.844.844 0 0 0 .216-1.174ZM12.217 13.074c.264-.383.703-.397 1.172-.217 0 0 2.12.97 3.422 1.301 1.302.33 3.422.636 3.422.636.425.084.907.45.88.914a.844.844 0 0 1-.894.792l-.087-.006a21.14 21.14 0 0 1-1.06-.115 27.191 27.191 0 0 1-2.81-.531 13.634 13.634 0 0 1-2.765-1 11.002 11.002 0 0 1-.979-.544l-.085-.056a.844.844 0 0 1-.216-1.174ZM17.813 24a2.625 2.625 0 1 0 0-5.25 2.625 2.625 0 0 0 0 5.25ZM30.188 24a2.625 2.625 0 1 0 0-5.25 2.625 2.625 0 0 0 0 5.25Z"/>
</svg>